<svg width="200" height="200" viewBox="0 0 200 200" fill="none" xmlns="http://www.w3.org/2000/svg">
  <!-- Clock Face -->
  <circle cx="100" cy="100" r="95" stroke="black" stroke-width="2"/>

  <!-- Center Pivot -->
  <circle cx="100" cy="100" r="3" fill="black"/>

  <!-- Hour and Minute Hands (Example: 10:10) -->
  <!-- Minute Hand -->
  <line x1="100" y1="100" x2="100" y2="25" stroke="black" stroke-width="3" transform="rotate(60, 100, 100)" />
  <!-- Hour Hand -->
  <line x1="100" y1="100" x2="100" y2="50" stroke="black" stroke-width="5" transform="rotate(305, 100, 100)" />

  <!-- Tick Marks -->
  <g id="ticks" stroke="black">
    <!-- Major ticks (12, 3, 6, 9) -->
    <line x1="100" y1="10" x2="100" y2="20" stroke-width="3"/>
    <line x1="190" y1="100" x2="180" y2="100" stroke-width="3"/>
    <line x1="100" y1="190" x2="100" y2="180" stroke-width="3"/>
    <line x1="10" y1="100" x2="20" y2="100" stroke-width="3"/>

    <!-- Minor ticks -->
    <g transform="rotate(30, 100, 100)">
      <line x1="100" y1="10" x2="100" y2="18" stroke-width="1.5"/>
    </g>
    <g transform="rotate(60, 100, 100)">
      <line x1="100" y1="10" x2="100" y2="18" stroke-width="1.5"/>
    </g>
    <g transform="rotate(120, 100, 100)">
      <line x1="100" y1="10" x2="100" y2="18" stroke-width="1.5"/>
    </g>
    <g transform="rotate(150, 100, 100)">
      <line x1="100" y1="10" x2="100" y2="18" stroke-width="1.5"/>
    </g>
     <g transform="rotate(210, 100, 100)">
      <line x1="100" y1="10" x2="100" y2="18" stroke-width="1.5"/>
    </g>
    <g transform="rotate(240, 100, 100)">
      <line x1="100" y1="10" x2="100" y2="18" stroke-width="1.5"/>
    </g>
    <g transform="rotate(300, 100, 100)">
      <line x1="100" y1="10" x2="100" y2="18" stroke-width="1.5"/>
    </g>
    <g transform="rotate(330, 100, 100)">
      <line x1="100" y1="10" x2="100" y2="18" stroke-width="1.5"/>
    </g>
  </g>
</svg> 